<?xml version="1.0" encoding="UTF-8" standalone="no"?>
<!-- Created with Inkscape (http://www.inkscape.org/) -->

<svg
   width="41.8288"
   height="22.5425"
   viewBox="0 0 4.18288 2.25425"
   version="1.1"
   id="svg5"
   xmlns="http://www.w3.org/2000/svg"
   xmlns:svg="http://www.w3.org/2000/svg">
  <defs
     id="defs2" />
  <g
     id="layer1"
     transform="translate(-0.00135743,-0.06406019)">
    <g
       aria-label="galactitrek"
       id="text113"
       style="font-size:3.175px;font-family:'Alien Encounters';-inkscape-font-specification:'Alien Encounters';fill:#ffcc00;stroke-width:0.264583">
      <path
         d="m 2.6620074,0.06406019 -0.08255,0.22225 H 0.65858242 q 0.180975,-0.22225 0.40004998,-0.22225 z m -0.09525,0.254 -0.079375,0.22225 H 0.55063242 l 0.0508,-0.142875 q 0.0127,-0.034925 0.0381,-0.079375 z m -0.18415,0.50799999 -0.079375,0.22225002 h -1.143 l 0.079375,-0.22225002 z m -0.092075,0.25400002 -0.079375,0.22225 h -1.143 l 0.079375,-0.22225 z m -0.092075,0.254 -0.079375,0.22225 h -0.508 l 0.079375,-0.22225 z m -0.092075,0.254 -0.08255,0.22225 h -0.508 l 0.08255,-0.22225 z m -1.06045,-1.01600001 -0.079375,0.22224999 h -0.508 L 0.5379324,0.57206019 Z M 0.9538574,0.82606018 0.8744824,1.0483102 h -0.508 l 0.079375,-0.22225002 z m -0.092075,0.25400002 -0.079375,0.22225 H 0.27440743 l 0.079375,-0.22225 z m 1.152525,0.762 -0.08255,0.22225 H 0.00453243 q 0.009525,-0.04445 0.01905,-0.079375 l 0.053975,-0.142875 z m -1.2446,-0.508 -0.079375,0.22225 H 0.18233243 l 0.079375,-0.22225 z m 1.152525,0.762 -0.08255,0.22225 H 0.23630743 q -0.219075,0 -0.23495,-0.22225 z m -1.2446,-0.508 -0.08255,0.22225 H 0.08708243 l 0.08255,-0.22225 z"
         id="path345"
         style="fill:#ffcc00" />
      <path
         d="m 4.1842374,0.06406019 -0.08255,0.22225 h -1.93675 l 0.08255,-0.22225 z m -0.09525,0.254 -0.07938,0.22225 h -1.93675 l 0.07938,-0.22225 z m -0.7747,0.254 -0.07938,0.22224999 h -0.508 l 0.07938,-0.22224999 z m -0.09208,0.25399999 -0.07937,0.22225002 h -0.508 l 0.07938,-0.22225002 z m -0.09207,0.25400002 -0.07938,0.22225 h -0.508 l 0.07937,-0.22225 z m -0.09207,0.254 -0.07938,0.22225 h -0.508 l 0.07938,-0.22225 z m -0.09208,0.254 -0.08255,0.22225 h -0.508 l 0.08255,-0.22225 z m -0.09207,0.254 -0.08255,0.22225 h -0.508 l 0.08255,-0.22225 z m -0.09207,0.254 -0.08255,0.22225 h -0.508 l 0.08255,-0.22225 z"
         id="path355"
         style="display:inline;fill:#ffcc00" />
    </g>
  </g>
</svg>
