<?xml version="1.0" encoding="UTF-8" standalone="no"?>
<!-- Created with Inkscape (http://www.inkscape.org/) -->

<svg
   width="224.8535"
   height="22.5425"
   viewBox="0 0 22.48535 2.25425"
   version="1.1"
   id="svg5"
   xmlns="http://www.w3.org/2000/svg"
   xmlns:svg="http://www.w3.org/2000/svg">
  <defs
     id="defs2" />
  <g
     id="layer1"
     transform="translate(-0.00135743,-0.06406019)">
    <g
       aria-label="galactitrek"
       id="text113"
       style="font-size:3.175px;font-family:'Alien Encounters';-inkscape-font-specification:'Alien Encounters';fill:#ffffff;stroke-width:0.264583">
      <path
         d="m 2.6620074,0.06406019 -0.08255,0.22225 H 0.65858242 q 0.180975,-0.22225 0.40004998,-0.22225 z m -0.09525,0.254 -0.079375,0.22225 H 0.55063242 l 0.0508,-0.142875 q 0.0127,-0.034925 0.0381,-0.079375 z m -0.18415,0.50799999 -0.079375,0.22225002 h -1.143 l 0.079375,-0.22225002 z m -0.092075,0.25400002 -0.079375,0.22225 h -1.143 l 0.079375,-0.22225 z m -0.092075,0.254 -0.079375,0.22225 h -0.508 l 0.079375,-0.22225 z m -0.092075,0.254 -0.08255,0.22225 h -0.508 l 0.08255,-0.22225 z m -1.06045,-1.01600001 -0.079375,0.22224999 h -0.508 L 0.5379324,0.57206019 Z M 0.9538574,0.82606018 0.8744824,1.0483102 h -0.508 l 0.079375,-0.22225002 z m -0.092075,0.25400002 -0.079375,0.22225 H 0.27440743 l 0.079375,-0.22225 z m 1.152525,0.762 -0.08255,0.22225 H 0.00453243 q 0.009525,-0.04445 0.01905,-0.079375 l 0.053975,-0.142875 z m -1.2446,-0.508 -0.079375,0.22225 H 0.18233243 l 0.079375,-0.22225 z m 1.152525,0.762 -0.08255,0.22225 H 0.23630743 q -0.219075,0 -0.23495,-0.22225 z m -1.2446,-0.508 -0.08255,0.22225 H 0.08708243 l 0.08255,-0.22225 z"
         id="path345"
         style="fill:#ffffff" />
      <path
         d="m 4.2526819,0.28631019 h -0.803275 l 0.168275,-0.22225 h 0.625475 z m 0.00635,0.254 h -1.0033 l 0.168275,-0.22225 h 0.828675 z m 0.01905,0.50800001 h -0.574675 l -0.00635,-0.22225002 h 0.574675 z m -0.00953,-0.25400002 h -0.574675 v -0.0762 l -0.060325,0.0762 h -0.574675 l 0.17145,-0.22224999 h 1.031875 z m 0.01905,0.50800002 h -0.574675 l -0.00635,-0.22225 h 0.574675 z m -0.67627,-0.47625002 -0.17145,0.22225002 h -0.574675 l 0.17145,-0.22225002 z m 0.70485,1.23825002 h -0.574675 l -0.00953,-0.22225 h 0.574675 z m -0.01905,-0.508 h -1.819275 l 0.17145,-0.22225 h 1.6383 z m -0.879475,-0.47625 -0.17145,0.22225 h -0.574675 l 0.17145,-0.22225 z m 0.90805,1.23825 h -0.574675 l -0.00953,-0.22225 h 0.574675 z m -0.01905,-0.508 h -2.022475 l 0.17145,-0.22225 h 1.8415 z m -1.4732,0.03175 -0.168275,0.22225 h -0.574675 l 0.168275,-0.22225 z m -0.193675,0.254 -0.168275,0.22225 h -0.574675 l 0.168275,-0.22225 z"
         id="path347"
         style="fill:#ffffff" />
      <path
         d="m 5.7100068,0.06406019 -0.08255,0.22225 h -0.508 l 0.08255,-0.22225 z m -0.09525,0.254 -0.079375,0.22225 h -0.508 l 0.079375,-0.22225 z m -0.092075,0.254 -0.079375,0.22224999 h -0.508 L 5.0146818,0.57206019 Z M 5.4306068,0.82606018 5.3512318,1.0483102 h -0.508 l 0.079375,-0.22225002 z m -0.092075,0.25400002 -0.079375,0.22225 h -0.508 l 0.079375,-0.22225 z m -0.092075,0.254 -0.079375,0.22225 h -0.508 l 0.079375,-0.22225 z m 1.08585,0.508 -0.08255,0.22225 h -1.768475 q 0.00953,-0.04445 0.01905,-0.079375 l 0.053975,-0.142875 z m -1.177925,-0.254 -0.08255,0.22225 h -0.508 l 0.08255,-0.22225 z m 1.08585,0.508 -0.08255,0.22225 h -1.444625 q -0.219075,0 -0.23495,-0.22225 z"
         id="path349"
         style="fill:#ffffff" />
      <path
         d="m 8.5706837,0.28631019 h -0.803275 l 0.168275,-0.22225 h 0.625475 z m 0.00635,0.254 h -1.0033 l 0.168275,-0.22225 h 0.828675 z m 0.01905,0.50800001 h -0.574675 l -0.00635,-0.22225002 h 0.574675 z m -0.00953,-0.25400002 h -0.574675 v -0.0762 l -0.060325,0.0762 h -0.574675 l 0.17145,-0.22224999 h 1.031875 z m 0.01905,0.50800002 h -0.574675 l -0.00635,-0.22225 h 0.574675 z m -0.67627,-0.47625002 -0.17145,0.22225002 h -0.574675 l 0.17145,-0.22225002 z m 0.70485,1.23825002 h -0.574675 l -0.00953,-0.22225 h 0.574675 z m -0.01905,-0.508 h -1.819275 l 0.17145,-0.22225 h 1.6383 z m -0.879475,-0.47625 -0.17145,0.22225 h -0.574675 l 0.17145,-0.22225 z m 0.90805,1.23825 h -0.574675 l -0.00953,-0.22225 h 0.574675 z m -0.01905,-0.508 h -2.022475 l 0.17145,-0.22225 h 1.8415 z m -1.4732,0.03175 -0.168275,0.22225 h -0.574675 l 0.168275,-0.22225 z m -0.193675,0.254 -0.168275,0.22225 h -0.574675 l 0.168275,-0.22225 z"
         id="path351"
         style="fill:#ffffff" />
      <path
         d="m 11.298009,0.06406019 -0.08255,0.22225 H 9.4533336 q 0.180975,-0.22225 0.40005,-0.22225 z m -0.09525,0.254 -0.07938,0.22225 H 9.3453836 l 0.0508,-0.142875 q 0.0127,-0.034925 0.0381,-0.079375 z m -1.3620754,0.254 -0.079375,0.22224999 h -0.508 L 9.3326836,0.57206019 Z M 9.7486086,0.82606018 9.6692336,1.0483102 h -0.508 l 0.079375,-0.22225002 z m -0.092075,0.25400002 -0.079375,0.22225 h -0.508 l 0.079375,-0.22225 z m -0.092075,0.254 -0.079375,0.22225 h -0.508 l 0.079375,-0.22225 z m 1.0858504,0.508 -0.08255,0.22225 H 8.7992836 q 0.00953,-0.04445 0.01905,-0.079375 l 0.053975,-0.142875 z m -1.1779254,-0.254 -0.08255,0.22225 h -0.508 l 0.08255,-0.22225 z m 1.0858504,0.508 -0.08255,0.22225 H 9.0310586 q -0.219075,0 -0.23495,-0.22225 z"
         id="path353"
         style="fill:#ffffff" />
      <path
         d="m 13.393511,0.06406019 -0.08255,0.22225 h -1.93675 l 0.08255,-0.22225 z m -0.09525,0.254 -0.07938,0.22225 h -1.93675 l 0.07938,-0.22225 z m -0.7747,0.254 -0.07938,0.22224999 h -0.508 l 0.07938,-0.22224999 z m -0.09208,0.25399999 -0.07937,0.22225002 h -0.508 l 0.07938,-0.22225002 z m -0.09207,0.25400002 -0.07938,0.22225 h -0.508 l 0.07937,-0.22225 z m -0.09207,0.254 -0.07938,0.22225 h -0.508 l 0.07938,-0.22225 z m -0.09208,0.254 -0.08255,0.22225 h -0.508 l 0.08255,-0.22225 z m -0.09207,0.254 -0.08255,0.22225 h -0.508 l 0.08255,-0.22225 z m -0.09207,0.254 -0.08255,0.22225 h -0.508 l 0.08255,-0.22225 z"
         id="path355"
         style="fill:#ffffff" />
      <path
         d="m 14.06026,0.06406019 -0.08255,0.22225 h -0.508 l 0.08255,-0.22225 z m -0.09525,0.254 -0.07937,0.22225 h -0.508 l 0.07938,-0.22225 z m -0.09207,0.254 -0.07938,0.22224999 h -0.508 L 13.36493,0.57206019 Z M 13.78087,0.82606018 13.70149,1.0483102 h -0.508 l 0.07937,-0.22225002 z m -0.09208,0.25400002 -0.07937,0.22225 h -0.508 l 0.07938,-0.22225 z m -0.09207,0.254 -0.07938,0.22225 h -0.508 l 0.07938,-0.22225 z m -0.09207,0.254 -0.08255,0.22225 h -0.508 l 0.08255,-0.22225 z m -0.09208,0.254 -0.08255,0.22225 h -0.508 l 0.08255,-0.22225 z m -0.09207,0.254 -0.08255,0.22225 h -0.508 l 0.08255,-0.22225 z"
         id="path357"
         style="fill:#ffffff" />
      <path
         d="m 16.155757,0.06406019 -0.08255,0.22225 h -1.93675 l 0.08255,-0.22225 z m -0.09525,0.254 -0.07938,0.22225 h -1.93675 l 0.07937,-0.22225 z m -0.7747,0.254 -0.07938,0.22224999 h -0.508 l 0.07937,-0.22224999 z m -0.09207,0.25399999 -0.07938,0.22225002 h -0.508 l 0.07938,-0.22225002 z m -0.09208,0.25400002 -0.07937,0.22225 h -0.508 l 0.07938,-0.22225 z m -0.09207,0.254 -0.07938,0.22225 h -0.508 l 0.07938,-0.22225 z m -0.09207,0.254 -0.08255,0.22225 h -0.508 l 0.08255,-0.22225 z m -0.09208,0.254 -0.08255,0.22225 h -0.508 l 0.08255,-0.22225 z m -0.09207,0.254 -0.08255,0.22225 h -0.508 l 0.08255,-0.22225 z"
         id="path359"
         style="fill:#ffffff" />
      <path
         d="m 18.063932,0.57206019 -0.0508,0.14287499 q -0.0127,0.034925 -0.0381,0.079375 h -0.498475 l 0.07937,-0.22224999 z m 0.0889,-0.28575 h -1.920875 l 0.08255,-0.22225 h 1.603375 q 0.219075,0 0.23495,0.22225 z m -0.0032,0.03175 q -0.0095,0.04445 -0.02223,0.079375 l -0.0508,0.142875 h -1.93675 l 0.07937,-0.22225 z m -0.37145,1.01600001 q -0.0064,0.04445 -0.01905,0.079375 l -0.0508,0.142875 h -0.508 l 0.07937,-0.22225 z m 0.1778,-0.50800002 q -0.1778,0.22225002 -0.396875,0.22225002 h -1.603375 l 0.07938,-0.22225002 z m -0.26035,0.76200002 -0.08255,0.22225 h -0.508 l 0.08255,-0.22225 z m -1.06045,-1.01600001 -0.07937,0.22224999 h -0.508 l 0.07938,-0.22224999 z m 1.146175,0.73025001 h -1.9177 l 0.07938,-0.22225 h 1.603375 q 0.219075,0 0.23495,0.22225 z m -0.1778,0.53975 -0.08255,0.22225 h -0.508 l 0.08255,-0.22225 z m -0.09207,0.254 -0.08255,0.22225 h -0.508 l 0.08255,-0.22225 z m -1.152525,-0.762 -0.07937,0.22225 h -0.508 l 0.07937,-0.22225 z m -0.09208,0.254 -0.08255,0.22225 h -0.508 l 0.08255,-0.22225 z m -0.09207,0.254 -0.08255,0.22225 h -0.508 l 0.08255,-0.22225 z m -0.09208,0.254 -0.08255,0.22225 h -0.508 l 0.08255,-0.22225 z"
         id="path361"
         style="fill:#ffffff" />
      <path
         d="m 20.188007,0.06406019 -0.08255,0.22225 h -1.762125 q 0.180975,-0.22225 0.40005,-0.22225 z m -0.09525,0.254 -0.07937,0.22225 h -1.778 l 0.0508,-0.142875 q 0.0127,-0.034925 0.0381,-0.079375 z m -0.18415,0.50799999 -0.07937,0.22225002 h -1.778 l 0.07938,-0.22225002 z m -1.177925,-0.25399999 -0.07938,0.22224999 h -0.508 l 0.07937,-0.22224999 z m 1.08585,0.50800001 -0.07937,0.22225 h -1.778 l 0.07937,-0.22225 z m -1.362075,0.254 -0.07938,0.22225 h -0.508 l 0.07937,-0.22225 z m 1.08585,0.508 -0.08255,0.22225 h -1.768475 q 0.0095,-0.04445 0.01905,-0.079375 l 0.05398,-0.142875 z m -1.177925,-0.254 -0.08255,0.22225 h -0.508 l 0.08255,-0.22225 z m 1.08585,0.508 -0.08255,0.22225 h -1.444625 q -0.219075,0 -0.23495,-0.22225 z"
         id="path363"
         style="fill:#ffffff" />
      <path
         d="m 22.486707,0.06406019 -0.2413,0.22225 h -0.644525 l 0.244475,-0.22225 z m -0.276225,0.254 -0.2413,0.22225 h -0.644525 l 0.244475,-0.22225 z m -0.2794,0.254 -0.2413,0.22224999 h -0.64135 l 0.2413,-0.22224999 z m -1.076325,-0.508 -0.08255,0.22225 h -0.508 l 0.08255,-0.22225 z m 0.8001,0.76199999 -0.244475,0.22225002 h -0.64135 l 0.244475,-0.22225002 z m -0.89535,-0.50799999 -0.07937,0.22225 h -0.508 l 0.07937,-0.22225 z m 0.619125,0.76200001 -0.12065,0.111125 0.04128,0.111125 h -0.80645 l 0.244475,-0.22225 z m -0.7112,-0.50800001 -0.07938,0.22224999 h -0.508 l 0.07937,-0.22224999 z m -0.09208,0.25399999 -0.07937,0.22225002 h -0.508 l 0.07938,-0.22225002 z m 1.000125,1.23825002 h -0.64135 l -0.08255,-0.22225 h 0.64135 z m -0.187325,-0.508 h -1.584325 l 0.07937,-0.22225 h 0.508 l -0.03493,0.092075 0.1016,-0.092075 h 0.8509 z m 0.2794,0.762 h -0.64135 l -0.08255,-0.22225 h 0.64135 z m -1.184275,-1.23825 -0.07937,0.22225 h -0.508 l 0.07937,-0.22225 z m 0.99695,0.73025 h -0.64135 l -0.0635,-0.1778 -0.193675,0.1778 h -0.873125 l 0.08255,-0.22225 h 1.609725 z m -0.93345,0.03175 -0.244475,0.22225 h -0.6858 l 0.08255,-0.22225 z m -0.276225,0.254 -0.244475,0.22225 h -0.50165 l 0.08255,-0.22225 z"
         id="path365"
         style="fill:#ffffff" />
    </g>
  </g>
</svg>
